<svg xmlns="http://www.w3.org/2000/svg" fill="none" viewBox="0 0 500 500">
  <!-- Main star body -->
  <path d="M250 30 L320 180 L470 180 L360 280 L390 430 L250 350 L110 430 L140 280 L30 180 L180 180 Z" fill="none" stroke="#FF5D01" stroke-width="12" stroke-linejoin="round"/>
  
  <!-- Main shooting trail -->
  <path d="M250 350 Q180 420 140 480 Q100 500 120 520" stroke="#FF5D01" stroke-width="25" fill="none" stroke-linecap="round"/>
  
  <!-- Secondary trail elements -->
  <path d="M220 380 Q170 450 140 500" stroke="#B04304" stroke-width="18" fill="none" stroke-linecap="round"/>
  <path d="M280 380 Q210 460 170 520" stroke="#53C68C" stroke-width="12" fill="none" stroke-linecap="round"/>
  
  <!-- Sparkle elements -->
  <circle cx="160" cy="430" r="8" fill="#FF5D01"/>
  <circle cx="190" cy="480" r="6" fill="#53C68C"/>
  <circle cx="120" cy="500" r="6" fill="#B04304"/>
  <circle cx="170" cy="520" r="8" fill="#FF5D01"/>
  
  <!-- Small trailing stars -->
  <path d="M150 460 L160 480 L180 480 L166 495 L170 515 L150 505 L130 515 L134 495 L120 480 L140 480 Z" fill="#B04304"/>
  <path d="M180 510 L186 522 L198 522 L188 530 L192 542 L180 536 L168 542 L172 530 L162 522 L174 522 Z" fill="#53C68C"/>
</svg>